<svg width="100" height="100" viewBox="0 0 100 100" fill="none" xmlns="http://www.w3.org/2000/svg">
    <rect width="100" height="100" fill="#000E1B"/>
    <path d="M49.1488 61.6931V61.6546C49.1873 61.6065 49.2546 61.5777 49.3124 61.5873C49.5914 61.5777 49.8608 61.5777 50.1398 61.5873C50.1975 61.5873 50.2649 61.6065 50.3034 61.6546V61.6931H49.1488Z" fill="#D1EFFA"/>
    <path d="M50.3033 61.6546C49.9184 61.645 49.5336 61.645 49.1487 61.6546C48.6196 61.6257 48.0904 61.6065 47.5612 61.568C46.1565 61.4621 44.7614 61.2505 43.3951 60.933C38.671 59.8361 34.5242 57.6328 30.9066 54.4289C30.5698 54.1306 30.2523 53.8228 29.9252 53.5149C29.8482 53.4475 29.7809 53.3513 29.7424 53.2551C29.6847 53.1204 29.7135 52.9761 29.8097 52.8702C29.906 52.7644 30.0599 52.7259 30.1946 52.7837C30.2812 52.8221 30.3678 52.8606 30.4448 52.9087C33.8988 55.0447 37.6704 56.6033 41.6248 57.527C42.9526 57.8349 44.2899 58.0754 45.6369 58.2486C47.5708 58.4891 49.524 58.5757 51.4675 58.5084C52.5162 58.4795 53.5553 58.3833 54.5944 58.2486C57.019 57.9407 59.4148 57.3923 61.7335 56.6226C62.9554 56.2185 64.1485 55.7567 65.3127 55.2179C65.4859 55.1216 65.6975 55.0928 65.89 55.1409C66.2075 55.2179 66.3999 55.545 66.3229 55.8625C66.3133 55.901 66.2941 55.9491 66.2748 55.9876C66.1978 56.1319 66.092 56.257 65.9573 56.3532C64.8508 57.2191 63.6578 57.9792 62.3974 58.6142C60.0209 59.8169 57.4809 60.6732 54.8638 61.1639C53.3533 61.4333 51.8331 61.5968 50.3033 61.6546Z" fill="#00A8E1"/>
    <path d="M36.0541 42.1517C36.2946 42.0074 36.5448 41.8535 36.8045 41.7188C37.478 41.3724 38.2285 41.1992 38.9886 41.2377C39.537 41.2666 40.0373 41.4205 40.4222 41.8246C40.7878 42.1998 40.9225 42.6617 40.961 43.162C40.9706 43.2678 40.9706 43.3736 40.9706 43.4891V48.473C40.9706 48.9059 40.9129 48.9637 40.4799 48.9637H39.3061C39.2291 48.9637 39.1522 48.9637 39.0752 48.9541C38.9597 48.9444 38.8635 48.8482 38.8443 48.7328C38.825 48.6269 38.825 48.5211 38.825 48.4153V43.9606C38.8346 43.7777 38.8154 43.6046 38.7673 43.4314C38.6903 43.1331 38.4209 42.9214 38.113 42.9022C37.5454 42.8637 36.9777 42.9792 36.4582 43.2197C36.3812 43.2389 36.3331 43.3159 36.3427 43.3929V48.4537C36.3427 48.55 36.3427 48.6365 36.3235 48.7328C36.3235 48.8675 36.2176 48.9637 36.0829 48.9637C35.9386 48.9733 35.7943 48.9733 35.6403 48.9733H34.6205C34.2645 48.9733 34.1875 48.8867 34.1875 48.5307V43.9798C34.1875 43.8162 34.1779 43.643 34.1394 43.4795C34.0721 43.1524 33.793 42.9214 33.4659 42.9022C32.8886 42.8637 32.3017 42.9792 31.7822 43.2293C31.7052 43.2486 31.6571 43.3352 31.6763 43.4121V48.5403C31.6763 48.8963 31.5994 48.9733 31.2434 48.9733H29.9541C29.6174 48.9733 29.5308 48.8771 29.5308 48.55V41.8727C29.5308 41.7957 29.5404 41.7188 29.5596 41.6418C29.5981 41.5263 29.7136 41.459 29.829 41.459H31.0317C31.2049 41.459 31.3107 41.5648 31.3684 41.7284C31.4166 41.8631 31.4454 41.9882 31.4935 42.1325C31.5897 42.1325 31.6475 42.0651 31.7148 42.0267C32.244 41.6995 32.802 41.4205 33.4274 41.305C33.9085 41.2088 34.3896 41.2088 34.8706 41.305C35.3228 41.4013 35.7269 41.6707 35.9867 42.0555C36.006 42.0844 36.0252 42.1036 36.0444 42.1229C36.0348 42.1325 36.0444 42.1325 36.0541 42.1517Z" fill="#00A8E1"/>
    <path d="M55.9993 46.9434C56.057 46.751 56.1147 46.5682 56.1725 46.3757C56.615 44.8844 57.0576 43.4027 57.5002 41.9114L57.5579 41.7382C57.606 41.565 57.7696 41.4592 57.9428 41.4592H59.4053C59.7709 41.4592 59.8478 41.565 59.7228 41.9114L59.1455 43.4412C58.5008 45.1153 57.8562 46.7991 57.2116 48.4732C57.1923 48.5309 57.1635 48.5887 57.1442 48.6464C57.0769 48.8484 56.8748 48.9831 56.6632 48.9639C56.2398 48.9543 55.8165 48.9543 55.3931 48.9639C55.0949 48.9735 54.9217 48.8388 54.8158 48.5694C54.5753 47.9344 54.3252 47.2898 54.0846 46.6548C53.5073 45.1442 52.9204 43.6336 52.3431 42.1135C52.2854 41.998 52.2469 41.8633 52.2181 41.7382C52.1892 41.5458 52.2566 41.4496 52.449 41.4496C52.9974 41.44 53.5458 41.4496 54.0846 41.4496C54.3155 41.4496 54.4214 41.6035 54.4791 41.8056C54.5849 42.1712 54.6908 42.5464 54.8062 42.912C55.2007 44.2494 55.5856 45.5964 55.98 46.9338C55.9704 46.9434 55.98 46.9434 55.9993 46.9434Z" fill="white"/>
    <path d="M21.8337 42.5166C21.9011 42.4974 21.9588 42.4589 21.9973 42.4012C22.1705 42.228 22.3533 42.0644 22.5457 41.9105C23.046 41.5256 23.6714 41.3332 24.2968 41.3813C24.5469 41.3909 24.6335 41.4679 24.6528 41.7084C24.672 42.0355 24.6624 42.3723 24.6624 42.6994C24.672 42.8341 24.6624 42.9592 24.6431 43.0939C24.6047 43.2671 24.5373 43.3344 24.3641 43.3537C24.2294 43.3633 24.1044 43.3537 23.9697 43.3441C23.325 43.2863 22.6996 43.4114 22.0935 43.6135C21.9588 43.6616 21.9588 43.7578 21.9588 43.8636V48.4819C21.9588 48.5685 21.9588 48.6454 21.9492 48.732C21.9395 48.8571 21.8433 48.9533 21.7182 48.9533C21.6509 48.9629 21.5739 48.9629 21.5066 48.9629H20.2558C20.1884 48.9629 20.1115 48.9629 20.0441 48.9533C19.919 48.9437 19.8228 48.8379 19.8132 48.7128C19.8036 48.6358 19.8036 48.5588 19.8036 48.4819V41.9393C19.8036 41.4967 19.8517 41.4486 20.2943 41.4486H21.2179C21.4681 41.4486 21.5835 41.5352 21.6509 41.7758C21.7182 42.0163 21.776 42.2568 21.8337 42.5166Z" fill="#00A8E1"/>
    <path d="M66.8425 52.2734C67.4775 52.2927 68.1029 52.3312 68.7187 52.4947C68.8919 52.5428 69.0554 52.6006 69.219 52.6775C69.4403 52.7641 69.5846 52.9758 69.6135 53.2067C69.652 53.4761 69.6616 53.7551 69.6423 54.0342C69.5173 55.6794 69.0073 57.2669 68.1607 58.6813C67.8528 59.1912 67.4775 59.653 67.0446 60.0571C66.958 60.1437 66.8521 60.2111 66.7367 60.2496C66.5539 60.2977 66.4384 60.2015 66.4288 60.0187C66.4384 59.9224 66.4577 59.8262 66.4962 59.73C66.8329 58.8256 67.16 57.9308 67.4198 56.9975C67.5738 56.4876 67.6796 55.9681 67.7469 55.4389C67.7662 55.2464 67.7758 55.054 67.7566 54.8616C67.7469 54.5345 67.5353 54.2554 67.2178 54.1592C66.9195 54.063 66.6116 54.0053 66.2941 53.986C65.4089 53.9476 64.5238 53.986 63.6482 54.1015L62.484 54.2458C62.359 54.2554 62.2435 54.2458 62.1762 54.1304C62.1088 54.0149 62.1377 53.8995 62.205 53.784C62.282 53.6782 62.3782 53.5819 62.4937 53.5146C63.2056 53.0047 64.0042 52.6968 64.8509 52.4947C65.5052 52.36 66.169 52.2927 66.8425 52.2734Z" fill="#00A8E1"/>
    <path d="M62.8112 45.2113V48.675C62.792 48.8675 62.7054 48.954 62.5129 48.9637C61.9934 48.9733 61.4834 48.9733 60.9639 48.9637C60.7715 48.9637 60.6849 48.8675 60.6656 48.6847C60.656 48.6269 60.656 48.5596 60.656 48.5018V41.8438C60.6656 41.5456 60.7426 41.459 61.0409 41.459H62.4263C62.7246 41.459 62.8112 41.5456 62.8112 41.8438V45.2113Z" fill="white"/>
    <path d="M25.586 45.1923V41.7767C25.5957 41.5458 25.6823 41.4592 25.9132 41.4496C26.4135 41.44 26.9138 41.44 27.4141 41.4496C27.6354 41.4496 27.7027 41.5169 27.722 41.7382C27.7316 41.8248 27.7316 41.9018 27.7316 41.9884V48.3962C27.7316 48.5021 27.722 48.6079 27.7124 48.7137C27.7027 48.8388 27.6065 48.9254 27.4815 48.935C27.4237 48.9447 27.3756 48.9447 27.3179 48.9447H25.9805C25.9324 48.9447 25.8939 48.9447 25.8458 48.935C25.7111 48.9254 25.5957 48.8196 25.586 48.6849C25.5764 48.6079 25.5764 48.5309 25.5764 48.454C25.586 47.386 25.586 46.2892 25.586 45.1923Z" fill="#00A8E1"/>
    <path d="M26.7021 38.0048C26.856 37.9952 27.01 38.024 27.1543 38.0721C27.6739 38.2453 27.9433 38.6975 27.8952 39.2844C27.8567 39.7847 27.4814 40.1888 26.9811 40.2658C26.7695 40.3043 26.5482 40.3043 26.3365 40.2658C25.7881 40.16 25.384 39.7559 25.4225 39.0631C25.4802 38.38 25.9324 38.0048 26.7021 38.0048Z" fill="#00A8E1"/>
    <path d="M61.7433 38.0049C61.9357 37.9857 62.1282 38.0241 62.311 38.1011C62.6862 38.2454 62.946 38.5918 62.9652 38.9959C63.0422 39.8715 62.4553 40.314 61.6759 40.2948C61.5701 40.2948 61.4643 40.2756 61.3584 40.2563C60.7619 40.112 60.454 39.6502 60.5118 38.9863C60.5599 38.4571 60.9736 38.0626 61.5412 38.0145C61.6086 38.0049 61.676 37.9953 61.7433 38.0049Z" fill="white"/>
    <path d="M18.3796 44.4034C18.3411 43.9031 18.2064 43.4124 18.0044 42.9602C17.6099 42.1327 17.0037 41.5266 16.0801 41.3149C15.0217 41.084 14.0692 41.3149 13.2033 41.9595C13.1456 42.0173 13.0782 42.0654 13.0012 42.1039C12.982 42.0942 12.9628 42.0846 12.9628 42.075C12.9339 41.9788 12.9147 41.8826 12.8858 41.7863C12.8088 41.5458 12.7126 41.4592 12.4528 41.4592C12.1642 41.4592 11.8659 41.4688 11.5773 41.4592C11.356 41.4496 11.1539 41.4785 11 41.6516C11 45.0191 11 48.3962 11.0096 51.7541C11.1347 51.9562 11.3271 51.9946 11.5484 51.985C11.8948 51.9754 12.2412 51.985 12.5875 51.985C13.1937 51.985 13.1937 51.985 13.1937 51.3885V48.6464C13.1937 48.579 13.1648 48.5021 13.2322 48.4443C13.7132 48.8196 14.3001 49.0505 14.9063 49.1082C15.753 49.1948 16.5227 48.9831 17.1673 48.4059C17.6388 47.9729 17.9851 47.4149 18.1679 46.7991C18.4277 46.0101 18.447 45.2116 18.3796 44.4034ZM16.0801 46.395C16.0127 46.6933 15.8588 46.9627 15.6375 47.1647C15.3874 47.3764 15.0795 47.5015 14.7523 47.5015C14.2617 47.5303 13.7806 47.4245 13.3476 47.1936C13.2418 47.1455 13.1744 47.0396 13.1841 46.9242V45.1827C13.1841 44.6054 13.1937 44.0281 13.1841 43.4508C13.1744 43.3161 13.2514 43.2007 13.3765 43.1526C13.9057 42.9024 14.4541 42.787 15.0314 42.9024C15.4355 42.9602 15.7818 43.2199 15.9454 43.5952C16.0897 43.9031 16.1763 44.2398 16.1956 44.5766C16.2533 45.1923 16.2533 45.8081 16.0801 46.395Z" fill="#00A8E1"/>
    <path d="M87.9904 44.6147V44.6532C87.9519 44.6147 87.9326 44.557 87.9519 44.5089V44.4319C87.9519 44.4319 87.9519 44.4223 87.9615 44.4223H87.9519V44.3261H87.9711C87.9711 44.3165 87.9615 44.3165 87.9615 44.3068C87.9422 44.124 87.9038 43.9412 87.8557 43.768C87.4997 42.498 86.7011 41.661 85.4022 41.3338C84.7961 41.1895 84.1803 41.1703 83.5645 41.2665C82.2656 41.4589 81.3323 42.1517 80.8801 43.3832C80.4376 44.557 80.4472 45.8463 80.8898 47.0201C81.2746 48.0881 82.0443 48.7616 83.1508 49.0406C83.7377 49.1849 84.3535 49.2234 84.9596 49.1368C86.9801 48.8963 87.8172 47.3664 87.9519 46.0387H87.9422V45.904C87.9326 45.8463 87.923 45.7982 87.9807 45.7597V45.7789C87.9807 45.7693 87.9904 45.7501 88 45.7404V44.634C88 44.6244 87.9904 44.6244 87.9904 44.6147ZM85.6812 46.4428C85.6235 46.6448 85.5369 46.8277 85.4118 47.0008C85.2002 47.2991 84.8634 47.4915 84.4978 47.5204C84.315 47.5396 84.1322 47.5396 83.9494 47.5011C83.5453 47.4242 83.2085 47.1548 83.045 46.7795C82.9006 46.4813 82.814 46.1542 82.7852 45.827C82.7371 45.2594 82.7275 44.6917 82.8622 44.1337C82.9103 43.9124 83.0065 43.6911 83.1219 43.4986C83.3336 43.1523 83.6992 42.931 84.1033 42.9021C84.2861 42.8829 84.4689 42.8829 84.6517 42.9214C85.0366 42.9983 85.3541 43.2485 85.5273 43.6045C85.6908 43.9412 85.7871 44.3165 85.8063 44.6917C85.8159 44.8649 85.8255 45.0381 85.8159 45.2113C85.8448 45.6346 85.7967 46.0483 85.6812 46.4428Z" fill="white"/>
    <path d="M71.124 38.0723H69.7867C69.421 38.0723 69.3537 38.1396 69.3537 38.5052V41.6226C69.3537 41.6899 69.3826 41.7573 69.3344 41.8246C69.2479 41.815 69.1998 41.7573 69.1324 41.7188C68.1318 41.1319 67.083 41.026 66.0247 41.5167C65.2838 41.8631 64.822 42.4885 64.5238 43.2293C64.2351 43.9413 64.1678 44.6918 64.187 45.4519C64.187 46.1639 64.3506 46.8662 64.6681 47.5012C65.0337 48.2036 65.5629 48.7424 66.3326 48.9733C67.3813 49.3004 68.3627 49.1369 69.2575 48.473C69.3248 48.4345 69.3633 48.3672 69.4499 48.3479C69.498 48.4537 69.5365 48.5692 69.5557 48.6847C69.5942 48.8386 69.7289 48.9444 69.8925 48.9444H70.1234C70.4698 48.9444 70.8065 48.9541 71.1433 48.9444C71.4127 48.9444 71.4896 48.8578 71.4993 48.5788V38.4379C71.4896 38.1396 71.4127 38.0723 71.124 38.0723ZM69.3633 45.1536V46.9047C69.3826 47.0202 69.3152 47.126 69.2094 47.1741C68.7475 47.4339 68.2184 47.5397 67.6988 47.4627C67.2562 47.4146 66.8714 47.1452 66.6693 46.7508C66.5154 46.4429 66.4288 46.1157 66.3999 45.779C66.323 45.1729 66.3711 44.5571 66.5154 43.9702C66.5635 43.8066 66.6212 43.6527 66.7078 43.4987C66.9099 43.1235 67.2947 42.883 67.7181 42.8541C68.228 42.806 68.7379 42.9022 69.1998 43.1139C69.3152 43.1524 69.3826 43.2678 69.3729 43.3929C69.3537 43.9894 69.3633 44.5667 69.3633 45.1536Z" fill="white"/>
    <path d="M44.4824 45.8181C45.204 45.9528 45.9449 45.9624 46.6665 45.847C47.0898 45.7892 47.4939 45.6642 47.8692 45.4621C48.3021 45.212 48.6196 44.8656 48.7543 44.3845C49.0911 43.1722 48.5715 41.9503 47.3111 41.4981C46.6953 41.296 46.0411 41.2287 45.3965 41.3153C43.8763 41.4885 42.8853 42.3255 42.4331 43.7784C42.1156 44.7694 42.1541 45.7796 42.4138 46.7802C42.7506 48.0599 43.5973 48.82 44.8769 49.0894C45.6081 49.2529 46.349 49.2241 47.0802 49.1086C47.4651 49.0413 47.8499 48.9451 48.2155 48.8007C48.4368 48.7141 48.5523 48.5794 48.5427 48.3293C48.533 48.0984 48.5427 47.8578 48.5427 47.6173C48.5427 47.3287 48.4272 47.2421 48.1482 47.3094C47.8692 47.3768 47.5998 47.4345 47.3207 47.4922C46.7242 47.6173 46.1084 47.6173 45.5119 47.5115C44.6941 47.3479 44.1649 46.6455 44.213 45.7796C44.2996 45.7892 44.3958 45.7989 44.4824 45.8181ZM44.2419 44.346C44.2708 44.1151 44.3381 43.8938 44.4247 43.6822C44.7133 42.9798 45.3195 42.7393 45.9353 42.7777C46.1084 42.7874 46.2816 42.8259 46.4452 42.8932C46.6953 42.999 46.8589 43.2299 46.8878 43.4993C46.9166 43.6629 46.907 43.8361 46.8589 43.9997C46.7435 44.346 46.4644 44.4904 46.1277 44.5577C45.9256 44.6058 45.714 44.625 45.5023 44.6058C45.1271 44.6058 44.7422 44.5769 44.367 44.5192C44.2226 44.5 44.2227 44.5 44.2419 44.346Z" fill="#00A8E1"/>
    <path d="M76.9354 45.9139C77.4935 45.8754 78.0515 45.7695 78.5518 45.5001C79.0618 45.25 79.4178 44.7785 79.5236 44.2205C79.5909 43.8741 79.5909 43.5085 79.514 43.1621C79.3119 42.2962 78.7635 41.7574 77.9361 41.4784C77.4742 41.3341 76.9835 41.2763 76.5025 41.2956C74.8861 41.3341 73.6545 42.1519 73.1542 43.7683C72.8175 44.8363 72.8656 45.9235 73.1927 46.9914C73.5295 48.0883 74.2992 48.7522 75.396 49.0504C75.8675 49.1659 76.3581 49.214 76.8392 49.1947C77.5416 49.1851 78.2439 49.0504 78.9078 48.8003C79.1868 48.6944 79.2542 48.5982 79.2542 48.3V47.6072C79.2446 47.3282 79.1291 47.232 78.8501 47.2993C78.6384 47.3571 78.4364 47.4052 78.2247 47.4533C77.5801 47.6072 76.9066 47.6361 76.2523 47.5206C75.5981 47.3955 75.1555 47.0203 74.9823 46.3661C74.9342 46.1736 74.8957 45.9812 74.8765 45.7792C74.9246 45.7792 74.9727 45.7792 75.0112 45.7984C75.6462 45.9138 76.2908 45.962 76.9354 45.9139ZM74.9246 44.3744C74.9919 43.9992 75.0785 43.6336 75.3094 43.3257C75.6654 42.8542 76.1561 42.7195 76.7141 42.7773C76.7622 42.7773 76.8007 42.7965 76.8488 42.7965C77.5223 42.9024 77.6859 43.4412 77.5608 43.9607C77.4646 44.3456 77.1471 44.4899 76.7911 44.5572C76.5987 44.5957 76.3966 44.615 76.1946 44.6053C75.8001 44.5957 75.4153 44.5669 75.0304 44.5091C74.9438 44.4995 74.9053 44.461 74.9246 44.3744Z" fill="white"/>
</svg>
