<svg width="100" height="100" viewBox="0 0 100 100" fill="none" xmlns="http://www.w3.org/2000/svg">
    <rect width="100" height="100" fill="#000E1B"/>
    <path d="M38.1337 61.6371C32.7212 61.1329 27.8189 59.2803 23.6368 56.1588C22.4645 55.2838 21.3228 54.3041 21.2656 54.1241C21.2016 53.9225 21.3638 53.6807 21.5631 53.6807C21.6592 53.6807 22.2123 53.9429 22.7921 54.2634C26.4576 56.2895 30.9348 57.7831 35.3293 58.446C38.8507 58.9773 42.8086 58.9922 46.2438 58.4872C49.1223 58.0641 52.2744 57.2171 54.8246 56.1814C55.3369 55.9734 55.861 55.8031 55.9893 55.803C56.4375 55.8029 56.6994 56.3167 56.4399 56.6872C56.3783 56.7752 55.9775 57.0839 55.5493 57.3732C52.3837 59.5121 48.5176 60.8904 43.8942 61.5285C42.8661 61.6704 39.2273 61.739 38.1337 61.6371Z" fill="white"/>
    <path d="M56.8784 60.0001C56.8521 59.9316 56.8921 59.7184 56.9673 59.5264C57.4092 58.3981 57.992 56.5334 58.0731 55.9887C58.2319 54.921 58.0558 54.6578 57.0826 54.5081C56.4706 54.414 55.3821 54.4452 53.7976 54.6024C53.0641 54.6751 52.8169 54.6766 52.7491 54.6088C52.5039 54.3637 53.203 53.8052 54.2502 53.4097C55.4885 52.9419 57.5223 52.7788 58.8073 53.0443C59.8396 53.2575 59.9628 53.3898 59.9628 54.285C59.9628 55.6015 59.3946 57.3773 58.567 58.6469C57.8442 59.7558 57.0339 60.4052 56.8784 60.0001Z" fill="white"/>
    <path d="M68.4139 53.4988C65.4578 52.9259 63.1294 50.7155 62.3383 47.7315C62.1621 47.067 62.1373 46.8285 62.1373 45.7987C62.1373 44.7753 62.1626 44.529 62.3333 43.8882C63.0802 41.0851 65.2018 38.9409 67.9174 38.2445C70.5687 37.5645 73.3394 38.3239 75.2772 40.2618C76.4206 41.4052 77.1183 42.7337 77.4686 44.4344C77.5967 45.0564 77.5765 46.6492 77.4315 47.351C76.83 50.2631 74.7661 52.4998 71.9005 53.3449C71.3274 53.514 71.0366 53.5506 70.0814 53.5739C69.3261 53.5923 68.7664 53.5671 68.4139 53.4988Z" fill="#7BAD2A"/>
    <path d="M70.8014 47.5485C73.5189 46.2181 73.8737 46.0242 73.8939 45.8588C73.9064 45.7561 73.8723 45.6368 73.8181 45.5937C73.7639 45.5507 72.3725 44.8783 70.726 44.0995C68.1678 42.8895 67.7077 42.6949 67.5616 42.7615L67.3906 42.8394V45.8295C67.3906 48.4467 67.4055 48.8345 67.5097 48.9387C67.5752 49.0043 67.652 49.0564 67.6803 49.0546C67.7086 49.0527 69.1131 48.375 70.8014 47.5485Z" fill="white"/>
    <path d="M16.3756 39.5208C14.6663 39.5059 13.258 40.0248 12.3398 41.0136C11.9054 41.4813 11.4674 42.3633 11.4042 42.8974C11.363 43.2451 11.3758 43.2928 11.5387 43.3947C11.645 43.4612 12.1821 43.5579 12.8492 43.6306C14.1349 43.771 14.1902 43.7557 14.334 43.2216C14.5753 42.3252 15.5248 41.7802 16.4662 41.9975C17.2722 42.1835 17.5518 42.5966 17.6371 43.7273C17.6977 44.5293 17.7591 44.4693 16.7972 44.5491C15.9091 44.6228 14.5198 44.8685 13.9548 45.0518C12.0545 45.6683 11.0037 47.0716 11 48.9979C10.9966 50.7504 11.7765 51.9253 13.2574 52.3988C13.8042 52.5736 15.0128 52.5883 15.6912 52.4284C16.2975 52.2855 16.9628 51.935 17.4691 51.4919C17.6832 51.3046 17.9129 51.1061 17.9796 51.0509C18.0854 50.9633 18.1503 51.0174 18.4921 51.477C18.9439 52.0846 19.3944 52.47 19.6505 52.4679C19.8162 52.4666 21.3499 51.2146 21.7067 50.7893C21.8694 50.5954 21.8304 50.4441 21.4965 49.9745C21.3606 49.7833 21.1686 49.4734 21.0698 49.2858C20.8915 48.9472 20.8897 48.9215 20.8423 45.7235C20.8117 43.6582 20.7627 42.381 20.7058 42.1645C20.5607 41.6122 20.1696 40.9621 19.7591 40.591C19.0387 39.9397 18.0563 39.5968 16.7214 39.5309C16.6048 39.5251 16.4895 39.5218 16.3756 39.5208ZM17.6688 46.3072L17.667 46.527C17.6593 47.4704 17.5126 48.5625 17.344 48.9307C17.1138 49.4335 16.7443 49.8582 16.3716 50.0484C15.9559 50.2605 15.2691 50.2491 14.9392 50.0248C14.5803 49.781 14.3803 49.3458 14.3455 48.7325C14.3025 47.9748 14.4388 47.581 14.9055 47.1134C15.3761 46.642 15.9669 46.4279 17.0006 46.3545L17.6688 46.3072H17.6688Z" fill="white"/>
    <path d="M46.1567 39.5432C45.4761 39.5395 44.7371 39.5879 44.3271 39.6841C43.6078 39.8528 42.6747 40.3087 42.2086 40.719C41.6097 41.2462 41.1267 42.1098 40.9784 42.9186C40.889 43.406 40.9923 43.4585 42.3419 43.6104C43.1243 43.6984 43.5852 43.7202 43.6725 43.6734C43.746 43.6341 43.8468 43.4737 43.8965 43.3171C44.1843 42.409 44.7592 41.9762 45.6753 41.9779C46.2175 41.9789 46.4485 42.0559 46.7627 42.3406C47.0784 42.6267 47.1757 42.9189 47.2133 43.6916C47.2552 44.5551 47.4278 44.4413 45.7983 44.6249C43.7666 44.8537 42.69 45.2365 41.8096 46.0432C40.0404 47.6644 40.1899 50.9326 42.0854 52.0681C42.309 52.202 42.6795 52.3639 42.9088 52.4279C43.5222 52.5992 45.0636 52.5408 45.6753 52.3231C46.2053 52.1346 46.7266 51.8024 47.2889 51.2951C47.5094 51.0963 47.6996 50.9465 47.7114 50.9622C47.7233 50.978 47.8143 51.1102 47.9136 51.2561C48.013 51.402 48.2972 51.7345 48.5453 51.9951C49.1854 52.6672 49.2066 52.6629 50.3928 51.6122C50.9248 51.1411 51.3701 50.6868 51.3825 50.6026C51.3948 50.5184 51.2794 50.2672 51.1261 50.0442C50.9727 49.8213 50.7579 49.4485 50.6488 49.2158L50.4504 48.7927L50.4062 45.5714C50.3597 42.1951 50.3507 42.1049 49.9906 41.3933C49.6069 40.635 48.5725 39.9227 47.4565 39.6483C47.1801 39.5803 46.6861 39.546 46.1567 39.5432ZM46.8568 46.3294H47.2291L47.2278 47.0684C47.2253 48.4573 46.8701 49.4181 46.172 49.9239C45.9086 50.1147 45.7719 50.1564 45.3489 50.1757C44.63 50.2084 44.2019 49.9152 44.006 49.2558C43.6967 48.2142 44.0633 47.2391 44.9443 46.7596C45.3614 46.5325 46.2646 46.3294 46.8568 46.3294H46.8568Z" fill="white"/>
    <path d="M23.5548 52.255C23.4403 52.1285 23.4293 51.5934 23.4293 46.121C23.4293 40.7717 23.4422 40.1127 23.5484 40.0065C23.7247 39.8302 26.0899 39.8302 26.2662 40.0065C26.3603 40.1005 26.3854 40.3037 26.3854 40.9729L26.3855 41.8201L26.6026 41.3654C27.2075 40.0985 28.4782 39.4386 29.8907 39.6577C30.8405 39.8051 31.5861 40.3552 32.0722 41.2674L32.3152 41.7233L32.537 41.3169C33.0263 40.4203 33.8796 39.8249 34.912 39.66C36.358 39.429 37.9043 40.24 38.3656 41.4713C38.6411 42.2066 38.6716 42.8689 38.6486 47.6057C38.627 52.0312 38.6216 52.182 38.4792 52.286C38.2668 52.4413 35.8783 52.4413 35.6658 52.286C35.5239 52.1823 35.5173 52.0235 35.4808 47.7952C35.4442 43.559 35.4377 43.403 35.2886 43.1492C35.0681 42.7739 34.7512 42.6139 34.2131 42.6064C33.6864 42.5989 33.4061 42.7208 33.0707 43.1027C32.6532 43.5782 32.6504 43.6082 32.6048 48.0605C32.5643 52.0236 32.5571 52.1826 32.4155 52.2861C32.3024 52.3688 31.9786 52.3933 31.0133 52.3924C30.323 52.3918 29.7071 52.3589 29.6445 52.3195C29.5466 52.2576 29.525 51.6684 29.4888 48.0571C29.4417 43.3674 29.4346 43.3014 28.9269 42.8556C28.4291 42.4186 27.5853 42.462 27.0976 42.9497C26.5973 43.45 26.5854 43.5616 26.5548 48.0726C26.5305 51.6479 26.513 52.1428 26.4066 52.2603C26.3005 52.3776 26.13 52.3936 24.9831 52.3936C23.8171 52.3936 23.667 52.379 23.5548 52.255V52.255Z" fill="white"/>
    <path d="M78.9353 52.3333C78.6953 52.1806 78.681 51.8213 78.6861 46.0717C78.69 41.6572 78.7131 40.2556 78.7846 40.1121C78.8779 39.9248 78.8799 39.9245 80.1727 39.9038C81.3076 39.8857 81.4803 39.8988 81.5727 40.0102C81.6497 40.103 81.6782 40.3795 81.6782 41.0351C81.6782 41.529 81.6816 41.933 81.6858 41.933C81.69 41.9331 81.8092 41.705 81.9507 41.4262C82.4818 40.3798 83.2172 39.8167 84.2603 39.6577C85.6266 39.4494 86.9488 40.0588 87.5029 41.1523C87.961 42.0564 87.9557 41.9892 87.9873 47.2656C88.0142 51.7559 88.0069 52.1159 87.8863 52.2492C87.7682 52.3796 87.6361 52.3928 86.4533 52.3928C85.2873 52.3928 85.1372 52.3783 85.0249 52.2542C84.9116 52.129 84.8995 51.7381 84.8995 48.2131C84.8995 45.754 84.8693 44.1442 84.8178 43.8608C84.6468 42.9184 84.1663 42.4814 83.384 42.5565C82.6821 42.624 82.1891 43.1949 81.9798 44.183C81.893 44.5924 81.87 45.4665 81.869 48.3946C81.8677 51.9877 81.8635 52.0938 81.7161 52.2413C81.5765 52.3809 81.4643 52.3928 80.2949 52.3917C79.5967 52.3911 78.9849 52.3648 78.9353 52.3333Z" fill="white"/>
    <path d="M52.8715 51.9826C52.7363 51.8836 52.7244 51.7748 52.7244 50.6373C52.7244 49.7554 52.7544 49.3284 52.8289 49.1518C52.8865 49.0155 53.9379 47.4465 55.1654 45.6652L57.3972 42.4265L55.3767 42.3886C53.4881 42.3531 53.3492 42.3411 53.2487 42.2035C53.1692 42.0947 53.1412 41.8039 53.1412 41.0856C53.1412 40.2158 53.157 40.0989 53.2928 39.9631C53.4404 39.8155 53.5455 39.8115 57.2637 39.8115C60.9117 39.8115 61.091 39.818 61.2619 39.9565C61.4318 40.0941 61.4408 40.1468 61.4408 41.0053V41.9091L61.1444 42.3573C60.9813 42.6038 60.0007 44.0255 58.9653 45.5166C57.9298 47.0078 57.0826 48.2392 57.0826 48.2531C57.0826 48.267 57.4834 48.298 57.9732 48.3221C59.0011 48.3726 60.0404 48.6127 60.8136 48.9783C61.6076 49.3537 61.6303 49.4024 61.6303 50.7245C61.6303 51.7084 61.614 51.8543 61.4917 51.9649C61.3095 52.1298 61.2374 52.124 60.813 51.9105C58.7849 50.8899 55.8766 50.8517 53.7848 51.8182C53.1212 52.1248 53.0766 52.1328 52.8715 51.9826Z" fill="white"/>
</svg>
