<svg width="100" height="100" viewBox="0 0 100 100" fill="none" xmlns="http://www.w3.org/2000/svg">
    <rect width="100" height="100" fill="#000E1B"/>
    <path d="M30.2448 41.1713C31.2053 40.0059 31.6814 38.5111 31.5732 37C30.1009 37.1432 28.7419 37.8585 27.7842 38.9944C27.3073 39.5385 26.9417 40.1721 26.7086 40.859C26.4754 41.5459 26.3792 42.2724 26.4256 42.9969C27.159 43.0114 27.8857 42.854 28.5484 42.5372C29.2112 42.2204 29.7919 41.7528 30.2448 41.1713ZM31.4826 43.2722C29.3692 43.149 27.5879 44.4892 26.5765 44.4892C25.5651 44.4892 24.0254 43.3392 22.3649 43.3696C21.2776 43.4005 20.2174 43.7184 19.2903 44.2915C18.3631 44.8647 17.6015 45.673 17.0814 46.6358C14.8171 50.5911 16.4776 56.483 18.6816 59.7035C19.7533 61.2339 21.0365 63.0579 22.7423 62.9986C24.4481 62.9393 24.9764 61.9337 26.9237 61.9337C28.8711 61.9337 29.4447 62.9986 31.1354 62.9606C32.8261 62.9225 34.0035 61.4271 35.0602 59.7659C35.8224 58.6312 36.4174 57.3911 36.8264 56.0844C35.8113 55.6315 34.9478 54.8926 34.3399 53.9565C33.7319 53.0205 33.4054 51.9273 33.3997 50.8086C33.4122 49.816 33.6717 48.8424 34.1543 47.977C34.6369 47.1117 35.3273 46.3822 36.1622 45.8553C35.6317 45.091 34.9336 44.4601 34.1221 44.0116C33.3105 43.5631 32.4073 43.309 31.4826 43.2692V43.2722ZM44.9629 40.2023V44.5455H48.4047V47.4131H44.9629V57.6893C44.9629 59.2228 45.6422 60.0047 47.1518 60.0047C47.5657 59.9972 47.979 59.9667 48.3896 59.9134V62.8039C47.7159 62.9138 47.0341 62.9647 46.3517 62.956C42.7892 62.956 41.4155 61.561 41.4155 58.0636V47.4816H38.7134V44.6064H41.34V40.2053L44.9629 40.2023ZM60.4359 62.7978H56.662L50.3218 44.6064H54.0806L58.5338 59.2228H58.6244L63.0776 44.6064H66.7609L60.4359 62.7978ZM77.0108 62.7978H73.7501V55.3435H66.7458V52.0606H73.735V44.6064H76.9957V52.0606H84V55.3435H77.0108V62.7978Z" fill="white"/>
</svg>
