<svg width="100" height="100" viewBox="0 0 100 100" fill="none" xmlns="http://www.w3.org/2000/svg">
    <rect width="100" height="100" fill="#000E1B"/>
    <path d="M46.5999 56.4971C46.6457 56.5034 46.6557 56.5053 46.7003 56.5111C47.4462 56.6124 48.1792 56.7469 48.7402 56.9976C49.2601 57.2272 49.5649 57.5177 49.8432 58.0356C50.2663 58.8209 50.2939 59.9211 49.9115 60.7538C49.6259 61.3734 48.9988 61.8929 48.4264 62.1683C47.8319 62.4565 47.2462 62.5938 46.5744 62.6705C45.3995 62.7998 44.1306 62.5564 43.0734 62.0451C42.4479 61.7396 41.6842 61.2136 41.2989 60.536C41.0155 60.0396 41.0246 59.3936 41.3693 58.9218C41.9187 58.1698 43.0955 58.0042 43.9819 58.0356C44.6576 58.0618 45.8743 58.2707 46.5159 58.4989C46.6938 58.5632 47.3496 58.8187 47.4641 58.9359C47.5447 59.0174 47.5969 59.1358 47.5607 59.2453C47.4141 59.6937 46.3245 59.9301 46.0099 59.9775C45.1676 60.1066 44.7306 59.7878 43.773 59.4097C43.5353 59.3166 43.2185 59.2133 42.9765 59.191C42.5418 59.1496 42.0167 59.2713 41.9337 59.7459C41.8924 59.9905 42.1793 60.2192 42.398 60.3154C42.9116 60.536 43.3292 60.6153 43.8348 60.6221C45.3282 60.6467 47.0066 60.4008 48.2281 59.5354C48.3953 59.416 48.5595 59.2413 48.5613 59.0211C48.5666 58.5765 47.787 58.3046 47.787 58.3046C46.9642 57.9615 45.4438 57.7945 44.6606 57.73C43.8387 57.6589 42.5454 57.5525 42.2349 57.5067C41.9152 57.4611 41.568 57.3966 41.2911 57.2725C41.013 57.1469 40.7409 56.8657 40.6601 56.5546C40.517 55.9938 40.6997 55.3058 41.0111 54.8578C41.8273 53.6844 43.7392 53.2387 45.1675 53.0617C46.55 52.8897 48.7849 52.8914 50.1428 53.613C50.3524 53.7254 50.4595 53.8299 50.4157 54.054C50.3272 54.4747 50.011 54.7459 49.6277 54.8647C49.2256 54.9927 48.3938 55.0426 48.0285 55.0656C46.3915 55.1573 44.4132 55.1092 42.8539 55.5344C42.7318 55.5693 42.5207 55.6262 42.4522 55.7028C42.2081 55.9678 42.9052 56.0435 43.0545 56.0738C43.0989 56.0844 43.1075 56.0859 43.1538 56.0909L46.5999 56.4971ZM36.8611 49.1975C36.8611 49.1975 37.1273 48.7982 37.3505 48.4952C37.7567 47.9435 38.4919 47.1783 39.0456 46.7045C39.2149 46.5598 39.4146 46.3959 39.4146 46.3959C39.4146 46.3959 39.1023 46.4282 38.9253 46.4644C38.5052 46.5462 37.8893 46.9556 37.5815 47.2201C37.0737 47.6548 36.5152 48.3615 36.7679 48.9895C36.8046 49.0782 36.8611 49.1975 36.8611 49.1975ZM39.6843 49.953C40.4866 49.8977 41.2381 49.6667 41.9378 49.2786C42.6239 48.8947 43.6332 48.146 43.5285 47.2658C43.4967 46.9809 43.3102 46.7658 43.0747 46.6654C42.7687 46.5329 42.6091 46.5542 42.2182 46.6704C41.9342 46.7535 41.8062 46.8039 41.5381 46.9574C40.751 47.4146 39.6351 48.3933 39.0292 49.1743C38.8894 49.3585 38.7478 49.5644 38.637 49.7056C38.5671 49.7927 38.5128 49.8726 38.5196 49.8939C38.5437 49.9824 39.371 49.9743 39.6843 49.953ZM37.6416 51.4534C37.5588 51.541 37.4713 51.752 37.3805 51.9048C37.332 51.9865 37.2421 52.0918 37.1827 52.134C36.9739 52.2876 36.797 52.2947 36.5954 52.1173C36.3127 51.8673 36.1492 51.4806 36.1376 51.1044C36.1316 50.9403 36.1597 50.7586 36.1287 50.6202C36.0772 50.3866 35.8434 50.1459 35.7174 49.9226C35.5694 49.6594 35.4496 49.2006 35.4347 48.9044C35.3839 47.9806 35.8709 47.1297 36.5034 46.4586C37.1403 45.78 37.9737 45.216 38.88 44.832C39.7367 44.4712 40.9921 44.2252 41.9329 44.551C42.2391 44.656 42.6658 44.9166 42.8803 45.1897C42.9258 45.2463 42.9629 45.3076 43.0096 45.3376C43.0514 45.3642 43.1609 45.3748 43.2479 45.3907C43.548 45.4428 43.98 45.6699 44.1564 45.8213C44.511 46.1271 44.7052 46.4195 44.7951 46.8438C44.9753 47.6975 44.4837 48.6341 43.9237 49.2042C42.9649 50.1853 42.018 50.8751 40.7914 51.3553C40.2527 51.5657 39.4136 51.7623 38.8024 51.7073C38.6126 51.6916 38.4176 51.6416 38.2327 51.6293C38.1384 51.6212 37.7935 51.5323 37.7567 51.5072C37.711 51.4721 37.6519 51.4415 37.6416 51.4534ZM38.737 53.3462C38.7744 53.3525 38.832 53.3692 38.8815 53.3883C39.3115 53.5519 39.4884 53.9498 39.5943 54.3869C39.8398 55.402 39.9446 57.6476 39.9854 58.5266C40.0154 59.1863 40.0319 59.8354 40.0595 60.4875C40.083 61.0398 40.127 61.774 40.0119 62.2914C39.9701 62.4775 39.8456 62.6939 39.6674 62.8047C39.4632 62.9354 38.9985 62.9453 38.7431 62.8927C38.1135 62.7625 37.9089 62.3577 37.8191 61.735C37.6055 60.2493 37.7083 57.3334 37.8344 56.103C37.8763 55.6966 38.0293 54.3945 38.2415 53.8485C38.314 53.6644 38.4683 53.2936 38.737 53.3462ZM19.5835 55.8182C19.5835 55.8182 18.6465 55.8845 18.0015 55.9561C17.181 56.0444 15.6393 56.3106 14.7494 56.6284C14.4825 56.724 13.9402 56.9509 13.8931 57.2254C13.8436 57.5099 14.0202 57.7323 14.2165 57.9625C14.3301 58.0962 14.9728 58.7144 15.153 58.8647C15.9084 59.4954 17.4402 60.468 18.5684 60.9403C18.956 61.1007 19.5972 61.3303 19.5972 61.3303C19.5972 61.3303 19.5495 59.5045 19.5581 57.7062C19.563 56.7575 19.5835 55.8182 19.5835 55.8182ZM36.7651 56.5448C36.8187 57.0352 36.6927 57.9626 36.6708 58.0849C36.6309 58.3668 36.4183 59.0171 36.383 59.0965C36.2114 59.4917 36.0422 59.8155 35.8629 60.1385C35.5556 60.6915 34.825 61.5682 34.3913 61.9434C32.7783 63.3375 30.2814 64.1313 28.1393 64.3927C26.6858 64.5683 25.0157 64.5426 23.4755 64.2576C22.9455 64.1612 22.1567 63.9794 22.1567 63.9794C22.1567 63.9794 22.1592 64.2948 22.134 64.5166C22.1217 64.6178 22.0455 64.8841 22.0028 64.9704C21.8908 65.2017 21.7069 65.3211 21.4396 65.3724C21.1169 65.4323 20.7747 65.4523 20.4766 65.3248C19.987 65.1188 19.8113 64.6608 19.7259 64.1326C19.657 63.7101 19.5847 62.9757 19.5847 62.9757C19.5847 62.9757 19.2185 62.8023 18.9131 62.6499C17.9752 62.1878 17.0844 61.6278 16.305 61.052C16.0891 60.8908 15.1615 60.1139 14.9568 59.9211C14.3827 59.376 13.8662 58.8338 13.4733 58.138C13.1678 57.5944 13.0799 57.112 13.3122 56.5361C13.6325 55.7333 14.7835 55.1289 15.5712 54.7844C16.1494 54.5291 17.9472 53.9421 18.694 53.8333C19.0467 53.7828 19.5938 53.6849 19.6275 53.663C19.6412 53.6525 19.6507 53.6435 19.6607 53.6322C19.6779 53.6079 19.707 52.8133 19.7014 52.5226C19.6941 52.2367 19.9129 50.3595 19.9832 49.9626C20.0199 49.7479 20.1825 48.9215 20.3484 48.7046C20.457 48.558 20.649 48.5698 20.8055 48.6661C21.6621 49.1987 21.9223 51.0459 21.986 51.9857C22.0241 52.5583 22.043 53.4197 22.043 53.4197C22.043 53.4197 23.0256 53.3906 23.6301 53.4078C24.2174 53.4214 24.8648 53.5141 25.4745 53.6112C26.255 53.7364 27.7763 54.0682 28.6488 54.5106C29.3673 54.8748 30.0398 55.4885 30.2577 56.138C30.4601 56.7334 30.4298 57.1455 30.1215 57.6828C29.7748 58.2896 29.119 58.7405 28.4541 58.7782C28.2563 58.7896 27.5115 58.6907 27.2824 58.5133C27.1925 58.4425 27.1972 58.3149 27.262 58.2284C27.2866 58.198 27.6347 58.0129 27.8402 57.9049C27.9432 57.8489 28.0284 57.7885 28.1089 57.7152C28.2796 57.5649 28.4332 57.3994 28.416 57.2054C28.3924 56.9537 28.126 56.7984 27.8721 56.6985C26.6806 56.2252 24.3017 55.8323 23.1522 55.7643C22.7022 55.7378 22.0622 55.7152 22.0622 55.7152L22.1975 62.0631C22.1975 62.0631 22.7266 62.1639 23.1436 62.2315C23.3829 62.2678 24.3967 62.3591 24.6661 62.3657C26.7175 62.4198 29.007 62.2362 30.8895 61.3478C31.716 60.9589 32.4742 60.4746 33.0482 59.8191C33.8048 58.9517 34.201 57.7646 34.0962 56.5247C33.9812 55.1706 33.0282 53.5631 32.2671 52.5843C30.2563 49.9984 26.8096 47.8712 23.7771 46.6241C20.6813 45.3517 17.6215 44.6198 14.3359 44.4972C13.4889 44.4658 11.6421 44.5085 10.7085 44.7668C10.5752 44.8044 10.4408 44.8493 10.317 44.8771C10.2192 44.901 10.065 44.9658 10.0227 45C9.99927 45.019 9.97608 45.0452 9.97608 45.0452C9.97608 45.0452 10.0336 45.077 10.0886 45.1003C10.1875 45.1434 10.6038 45.1693 10.8192 45.2087C11.0119 45.245 11.2126 45.3462 11.292 45.4874C11.3675 45.6217 11.3769 45.7275 11.2867 45.8395C11.0752 46.0967 10.279 46.0533 9.92846 45.9978C9.56413 45.9398 9.11051 45.8283 9.0272 45.5111C8.93054 45.1375 9.10803 44.7712 9.29976 44.4327C9.68496 43.7553 10.2367 43.403 11.0447 43.1823C12.1924 42.8665 13.6415 42.6457 14.7252 42.6043C17.178 42.5116 19.4995 42.9406 21.8761 43.6621C23.2362 44.0734 25.017 44.7635 26.3207 45.3912C27.2561 45.8423 28.73 46.6717 29.558 47.2138C29.8191 47.3862 31.3472 48.509 31.5846 48.7063C32.0798 49.1112 32.7275 49.6931 33.1965 50.1584C34.1039 51.0576 35.2325 52.4359 35.7807 53.5299C35.9127 53.7919 36.0149 54.0496 36.1851 54.3532C36.2436 54.4573 36.4941 55.0794 36.5357 55.2591C36.577 55.437 36.6374 55.6983 36.646 55.7087C36.6581 55.8042 36.7742 56.3387 36.7651 56.5448ZM67.6013 55.1412C66.4526 55.4061 63.4321 55.5531 63.4321 55.5531L63.0512 56.7463C63.0512 56.7463 64.5607 56.6174 65.6588 56.7321C65.6588 56.7321 66.0146 56.6908 66.0564 57.136C66.0706 57.5513 66.0211 57.9969 66.0211 57.9969C66.0211 57.9969 65.9984 58.2665 65.6163 58.335C65.2023 58.404 62.3628 58.5138 62.3628 58.5138L61.9029 60.0691C61.9029 60.0691 61.7321 60.4286 62.1151 60.326C62.4709 60.2307 65.4461 59.6724 65.8336 59.7528C66.2489 59.8559 66.7085 60.4095 66.5756 60.9141C66.4173 61.5395 63.4477 63.4333 61.6393 63.3011C61.6393 63.3011 60.689 63.3624 59.8858 62.08C59.1378 60.8578 60.1693 58.5438 60.1693 58.5438C60.1693 58.5438 59.6965 57.4636 60.0391 57.0974C60.0391 57.0974 60.243 56.9124 60.8375 56.8706L61.5653 55.3648C61.5653 55.3648 60.7362 55.4219 60.243 54.812C59.7836 54.2334 59.7451 53.9675 60.0974 53.8077C60.474 53.6217 63.9265 52.9916 66.3022 53.0715C66.3022 53.0715 67.1279 52.9904 67.844 54.4226C67.844 54.4226 68.191 55.0018 67.6013 55.1412ZM58.6656 60.9309C58.3612 61.647 57.5569 62.4113 56.5578 61.9363C55.5714 61.4602 54.0004 58.2448 54.0004 58.2448C54.0004 58.2448 53.404 57.0458 53.2893 57.0766C53.2893 57.0766 53.1604 56.8425 53.0814 58.1527C52.9993 59.4574 53.0972 62.0014 52.5768 62.4019C52.0838 62.8034 51.4868 62.6436 51.1772 62.1745C50.8958 61.7123 50.7787 60.6142 50.9322 58.6855C51.1127 56.7531 51.5616 54.6972 52.1351 54.057C52.7078 53.4211 53.1676 53.8827 53.3469 54.0502C53.3469 54.0502 54.113 54.7446 55.3763 56.7835L55.5993 57.1607C55.5993 57.1607 56.7473 59.087 56.8673 59.0826C56.8673 59.0826 56.9611 59.1711 57.0447 59.1075C57.1652 59.073 57.1166 58.4554 57.1166 58.4554C57.1166 58.4554 56.8784 56.356 55.8311 52.8027C55.8311 52.8027 55.6727 52.3596 55.7798 51.9444C55.8862 51.5248 56.3067 51.7218 56.3067 51.7218C56.3067 51.7218 57.93 52.538 58.718 55.1809C59.5007 57.8246 58.9747 60.2094 58.6656 60.9309ZM76.1363 59.348C75.3974 60.6373 73.3113 63.3369 70.539 62.6995C69.6235 64.9196 68.8544 67.1655 68.4146 70.5261C68.4146 70.5261 68.3179 71.1791 67.7752 70.9522C67.2374 70.764 66.3514 69.8698 66.1722 68.6327C65.9794 67.0076 66.7028 64.2606 68.1814 61.1106C67.7502 60.4095 67.4562 59.4079 67.7079 57.9816C67.7079 57.9816 68.0792 55.3331 70.7392 52.9459C70.7392 52.9459 71.0581 52.6706 71.2429 52.7554C71.4466 52.8408 71.3523 53.7026 71.1907 54.1217C71.0228 54.5383 69.8386 56.5884 69.8386 56.5884C69.8386 56.5884 69.0999 57.9734 69.3078 59.0658C70.7029 56.921 73.8741 52.5959 75.8397 53.9598C76.4999 54.4322 76.8043 55.4598 76.8043 56.567C76.8047 57.5396 76.5702 58.5733 76.1363 59.348ZM75.5627 55.9512C75.5627 55.9512 75.4533 55.0985 74.6196 56.0379C73.9026 56.8307 72.6092 58.316 71.5681 60.3334C72.6605 60.2108 73.7142 59.6181 74.0328 59.3162C74.5507 58.8566 75.7574 57.6098 75.5627 55.9512ZM91.4086 55.7571H86.3277C86.2264 54.0302 86.018 52.348 85.6903 50.6155C85.6566 50.4362 85.5006 50.3062 85.319 50.3062H84.1476C84.0457 50.3062 83.9492 50.352 83.8831 50.4319C83.8168 50.5132 83.7909 50.6165 83.8104 50.7177C84.1432 52.3942 84.354 54.0442 84.458 55.7587H79.5699C79.3421 55.7587 79.1571 55.9432 79.1571 56.17V57.2265C79.1571 57.4538 79.3421 57.6396 79.5699 57.6396H84.528C84.5312 57.9003 84.5337 58.1338 84.5337 58.3528C84.5337 59.8754 84.4681 61.1297 84.3146 62.5451C84.3025 62.6545 84.3383 62.7634 84.4124 62.8436C84.4843 62.9246 84.5879 62.9707 84.6954 62.9707H85.7818C85.9939 62.9707 86.1695 62.8112 86.1907 62.6001C86.3392 61.175 86.4028 59.9052 86.4028 58.3528C86.4028 58.1345 86.4004 57.9002 86.3972 57.6395H91.4087C91.6359 57.6395 91.8213 57.4537 91.8213 57.2264V56.1699C91.8213 55.9421 91.6358 55.7571 91.4086 55.7571Z" fill="#085AA4"/>
    <path d="M23.4701 41.5999C23.3981 41.7069 23.3807 41.8382 23.422 41.9615C23.4652 42.0846 23.559 42.1782 23.6803 42.2207L24.591 42.5272C24.6461 42.5444 24.7009 42.5535 24.7545 42.5535C24.9233 42.5535 25.0818 42.4699 25.1756 42.3296C28.159 37.9468 32.1967 34.2976 36.8529 31.7765C41.6598 29.1735 47.1061 27.7966 52.6045 27.7966C59.2457 27.7966 65.6536 29.7556 71.1358 33.4615C76.485 37.0763 80.6393 42.1196 83.1497 48.0464C83.2247 48.2238 83.3979 48.3382 83.5899 48.3382H84.6777C84.8029 48.3382 84.9209 48.2751 84.9918 48.1703C85.063 48.0658 85.0763 47.933 85.029 47.8155C82.4404 41.443 78.0629 36.0107 72.3682 32.1079C66.5386 28.1124 59.7044 26 52.6045 26C40.867 26 29.9752 31.8319 23.4701 41.5999Z" fill="#5092CE"/>
</svg>
