<svg width="100" height="100" viewBox="0 0 100 100" fill="none" xmlns="http://www.w3.org/2000/svg">
    <rect width="100" height="100" fill="#000E1B"/>
    <path d="M38.8149 67.511C37.0947 67.511 35.6924 68.8191 35.6924 70.6214C35.6924 72.4121 37.0947 73.7317 38.8149 73.7317C40.5351 73.7317 41.9375 72.4121 41.9375 70.6214C41.9368 68.8185 40.5351 67.511 38.8149 67.511ZM38.8149 72.5063C37.8721 72.5063 37.0595 71.7289 37.0595 70.6214C37.0595 69.5023 37.8728 68.7365 38.8149 68.7365C39.7577 68.7365 40.5704 69.5023 40.5704 70.6214C40.5704 71.7289 39.757 72.5063 38.8149 72.5063ZM32.0032 67.511C30.283 67.511 28.8807 68.8191 28.8807 70.6214C28.8807 72.4121 30.283 73.7317 32.0032 73.7317C33.7234 73.7317 35.1258 72.4121 35.1258 70.6214C35.1258 68.8185 33.7234 67.511 32.0032 67.511ZM32.0032 72.5063C31.0604 72.5063 30.2478 71.7289 30.2478 70.6214C30.2478 69.5023 31.0604 68.7365 32.0032 68.7365C32.946 68.7365 33.7587 69.5023 33.7587 70.6214C33.7587 71.7289 32.946 72.5063 32.0032 72.5063ZM23.901 68.4653V69.785H27.0588C26.9646 70.5272 26.7172 71.0694 26.3404 71.4462C25.8808 71.9058 25.1624 72.4121 23.9017 72.4121C21.9578 72.4121 20.4376 70.845 20.4376 68.9012C20.4376 66.9573 21.9572 65.3903 23.9017 65.3903C24.9502 65.3903 25.7161 65.8023 26.2821 66.333L27.2127 65.4025C26.4231 64.6488 25.3745 64.0713 23.9017 64.0713C21.2387 64.0713 19 66.2395 19 68.9018C19 71.5648 21.2387 73.7324 23.9017 73.7324C25.3393 73.7324 26.4231 73.2613 27.2716 72.3775C28.1433 71.5059 28.4144 70.2804 28.4144 69.2909C28.4144 68.9845 28.3907 68.7019 28.3439 68.466H23.901V68.4653ZM57.0371 69.4901C56.7781 68.7947 55.9885 67.511 54.3741 67.511C52.7718 67.511 51.4406 68.7717 51.4406 70.6214C51.4406 72.3653 52.7603 73.7317 54.5272 73.7317C55.9526 73.7317 56.7775 72.8601 57.1191 72.3531L56.059 71.6462C55.7059 72.1647 55.2226 72.5063 54.5272 72.5063C53.8318 72.5063 53.3371 72.1884 53.0192 71.5635L57.1787 69.8433L57.0371 69.4901ZM52.7955 70.5272C52.7603 69.3254 53.7261 68.7127 54.4215 68.7127C54.9637 68.7127 55.4233 68.9838 55.5764 69.3722L52.7955 70.5272ZM49.4134 73.5433H50.7798V64.4007H49.4134V73.5433ZM47.1753 68.2058H47.1286C46.8222 67.8404 46.2332 67.5103 45.4911 67.5103C43.9356 67.5103 42.5102 68.8768 42.5102 70.6329C42.5102 72.3768 43.9356 73.7317 45.4911 73.7317C46.2332 73.7317 46.8222 73.4016 47.1286 73.0248H47.1753V73.4728C47.1753 74.663 46.5389 75.2987 45.5141 75.2987C44.6777 75.2987 44.1592 74.6975 43.9471 74.1912L42.7569 74.686C43.0985 75.5109 44.006 76.5242 45.5141 76.5242C47.1164 76.5242 48.4713 75.5814 48.4713 73.2837V67.6988H47.1753V68.2058ZM45.6083 72.5063C44.6655 72.5063 43.8766 71.7167 43.8766 70.6329C43.8766 69.5369 44.6662 68.7358 45.6083 68.7358C46.5389 68.7358 47.2696 69.5369 47.2696 70.6329C47.2696 71.7173 46.5389 72.5063 45.6083 72.5063ZM63.4387 64.4007H60.1684V73.5433H61.5328V70.0791H63.438C64.9508 70.0791 66.4372 68.9838 66.4372 67.2399C66.4372 65.496 64.9515 64.4007 63.4387 64.4007ZM63.4739 68.8069H61.5335V65.6729H63.4739C64.494 65.6729 65.0735 66.5174 65.0735 67.2399C65.0735 67.9489 64.4947 68.8069 63.4739 68.8069ZM71.9076 67.4941C70.9194 67.4941 69.8959 67.9292 69.473 68.8937L70.6849 69.3993C70.9438 68.8937 71.4257 68.729 71.932 68.729C72.6375 68.729 73.3553 69.1526 73.3668 69.9049V69.9992C73.1201 69.8582 72.5908 69.646 71.9435 69.646C70.6381 69.646 69.309 70.3638 69.309 71.7045C69.309 72.9279 70.3792 73.7161 71.5788 73.7161C72.4966 73.7161 73.0022 73.3047 73.3201 72.8221H73.3668V73.5277H74.6844V70.0222C74.6838 68.3996 73.4719 67.4941 71.9076 67.4941ZM71.7429 72.5049C71.2955 72.5049 70.6727 72.2812 70.6727 71.7289C70.6727 71.0233 71.4487 70.7529 72.1197 70.7529C72.7196 70.7529 73.0022 70.8823 73.3668 71.0585C73.2604 71.9051 72.5311 72.5049 71.7429 72.5049ZM79.4824 67.694L77.9181 71.6577H77.8714L76.2481 67.694H74.778L77.2126 73.2342L75.8245 76.3161H77.2478L81 67.694H79.4824ZM67.1909 73.5433H68.5553V64.4007H67.1909V73.5433Z" fill="white"/>
    <path d="M35.6247 23.5121C35.2508 23.9088 35.0286 24.5253 35.0286 25.3234V53.8351C35.0286 54.6344 35.2508 55.2497 35.6247 55.6464L35.7203 55.7395L51.6919 39.768V39.5792V39.3905L35.7203 23.4189L35.6247 23.5121Z" fill="#39DCFF"/>
    <path d="M57.0157 45.0952L51.6919 39.769V39.5802V39.3914L57.0169 34.0664L57.1364 34.1345L63.4435 37.7188C65.2452 38.7427 65.2452 40.4177 63.4435 41.4416L57.1364 45.0259L57.0157 45.0952Z" fill="#FFBD00"/>
    <path d="M57.1364 45.0248L51.6919 39.5791L35.6248 55.6462C36.2186 56.2747 37.1994 56.3523 38.3034 55.7251L57.1364 45.0248Z" fill="#FF3A44"/>
    <path d="M57.1365 34.1335L38.3047 23.4333C37.1996 22.806 36.2199 22.8837 35.6261 23.5121L51.692 39.5792L57.1365 34.1335Z" fill="#0FBF69"/>
    <path opacity="0.2" d="M57.017 44.9033L38.3047 55.5355C37.2581 56.1305 36.3226 56.091 35.7217 55.5498L35.6261 55.6454L35.7217 55.7386L35.7229 55.7374C36.3238 56.2786 37.2593 56.3192 38.3059 55.723L57.1389 45.0228L57.017 44.9033Z" fill="black"/>
    <path opacity="0.12" d="M35.6249 55.4577C35.2509 55.0599 35.0287 54.4446 35.0287 53.6465V53.8353C35.0287 54.6334 35.2509 55.2499 35.6249 55.6465L35.7205 55.5509L35.6249 55.4577Z" fill="black"/>
    <path opacity="0.12" d="M63.4448 41.2518L57.017 44.9041L57.1364 45.0236L63.4436 41.4393C64.3444 40.928 64.7948 40.2529 64.7948 39.5791C64.7208 40.1896 64.262 40.7882 63.4448 41.2518Z" fill="black"/>
    <path opacity="0.25" d="M38.3046 23.6222L63.4447 37.9068C64.2619 38.3703 64.7207 38.9689 64.796 39.5794C64.7972 38.9044 64.3455 38.2293 63.4447 37.718L38.3046 23.4335C36.5029 22.4107 35.0286 23.2602 35.0286 25.3248V25.5135C35.0286 23.449 36.5029 22.5983 38.3046 23.6222Z" fill="white"/>
</svg>
