<svg width="100" height="100" viewBox="0 0 100 100" fill="none" xmlns="http://www.w3.org/2000/svg">
    <rect width="100" height="100" fill="#000E1B"/>
    <path d="M18.9774 56.9762H15.2442V51.6524H12.829V56.9762H9V43.2434H12.8216V48.3684H15.2368V43.2434H18.97V56.9762H18.9774ZM36.0899 57.0351C39.9115 57.0351 43.0336 53.8541 43.0336 49.9809C43.0336 46.0489 39.9115 43.0078 36.0899 43.0078C32.2167 43.0078 30.2581 45.8206 29.7868 46.9693C29.7868 45.2684 28.0859 43.2361 26.1125 43.2361H19.7358V56.9762H25.6707C28.0859 56.9762 29.7868 54.9144 29.7868 53.103C30.3244 54.2222 32.2241 57.0351 36.0899 57.0351ZM25.1994 51.4536C25.7517 51.4536 26.1935 51.9911 26.1935 52.6023C26.1935 53.2429 25.7517 53.7804 25.1994 53.7804H23.2997V51.4536H25.1994ZM25.1994 46.2992C25.7517 46.2992 26.1935 46.8368 26.1935 47.4479C26.1935 48.0591 25.7517 48.5966 25.1994 48.5966H23.2997V46.2992H25.1994ZM27.7104 49.9809C28.1522 49.9515 28.8738 49.4434 29.1462 49.1415C29.0431 49.5097 29.0431 50.6731 29.1462 51.0413C28.8443 50.5921 28.1522 50.0619 27.7104 49.9809ZM32.607 49.9809C32.607 48.0444 34.1828 46.4833 36.1193 46.4907C38.0633 46.5054 39.6096 48.0885 39.5875 50.0325C39.558 51.947 38.0117 53.4859 36.0973 53.4859C34.168 53.4859 32.607 51.9249 32.607 49.9809ZM36.0899 52.7348C37.5773 52.7348 38.8291 51.5125 38.8291 49.9809C38.8291 48.4494 37.5773 47.2418 36.0899 47.2418C34.5583 47.2418 33.336 48.4494 33.336 49.9809C33.336 51.5125 34.5583 52.7348 36.0899 52.7348Z" fill="white"/>
    <path d="M62.9883 48.1028C62.9147 44.7746 60.5584 43.0147 57.672 43.0147C56.0888 43.0147 54.6603 43.5449 53.6884 44.5758C52.7164 43.5449 51.2879 43.0147 49.7048 43.0147C46.8183 43.0147 44.4621 44.7819 44.3884 48.1102C44.3884 48.1176 44.3884 48.1249 44.3884 48.1323V55.7239C44.3884 56.4234 44.9554 56.9831 45.6476 56.9831H46.8404C46.9582 56.9831 47.054 56.8873 47.054 56.7695V48.1249C47.1055 46.4829 48.2689 45.614 49.7048 45.614C51.1406 45.614 52.3041 46.4829 52.3556 48.1249V55.7166C52.3556 56.4161 52.9226 56.9757 53.6147 56.9757H54.8076C54.9254 56.9757 55.0211 56.88 55.0211 56.7622V48.1176C55.0727 46.4755 56.2361 45.6066 57.672 45.6066C59.1078 45.6066 60.2712 46.4755 60.3228 48.1176V55.7092C60.3228 56.4087 60.8898 56.9683 61.5819 56.9683H62.7748C62.8926 56.9683 62.9883 56.8726 62.9883 56.7548V48.1102C62.9957 48.1176 62.9883 48.1102 62.9883 48.1028V48.1028ZM89.8426 43.2283H87.8176C87.258 43.2283 86.7352 43.5081 86.4186 43.972L84.1801 47.2855C83.8856 47.7199 83.2523 47.7199 82.9578 47.2855L80.7194 43.972C80.4101 43.5081 79.8799 43.2283 79.3203 43.2283H77.2954C77.1702 43.2283 77.0966 43.3682 77.1628 43.4713L81.1538 49.3914C81.441 49.8185 81.441 50.3781 81.1538 50.8052L77.1628 56.7253C77.0892 56.8284 77.1702 56.9683 77.2954 56.9683H79.3203C79.8799 56.9683 80.4027 56.6885 80.7194 56.2246L82.9578 52.9111C83.2523 52.4767 83.8856 52.4767 84.1801 52.9111L86.4186 56.2246C86.7279 56.6885 87.258 56.9683 87.8176 56.9683H89.8426C89.9678 56.9683 90.0414 56.8284 89.9751 56.7253L85.9768 50.8125C85.6896 50.3855 85.6896 49.8259 85.9768 49.3988L89.9678 43.4786C90.0414 43.3755 89.9678 43.2283 89.8426 43.2283V43.2283ZM76.2498 43.2283H75.0569C74.4531 43.2283 73.945 43.6553 73.8199 44.2223C72.7595 43.4123 71.4268 43 69.9909 43C66.5007 43 63.6657 45.4299 63.6657 50.0173C63.6657 54.6047 66.4933 57.0346 69.9909 57.0346C71.4194 57.0346 72.7374 56.6296 73.7978 55.8344C73.8567 56.475 74.3942 56.9831 75.0569 56.9831H76.2498C76.3676 56.9831 76.4633 56.8873 76.4633 56.7695V43.4418C76.4559 43.324 76.3676 43.2283 76.2498 43.2283V43.2283ZM69.9909 54.428C67.9071 54.428 66.2135 52.9038 66.2135 50.0247C66.2135 47.1456 67.9071 45.6214 69.9909 45.6214C72.0747 45.6214 73.7683 47.1456 73.7683 50.0247C73.7683 52.9038 72.0747 54.428 69.9909 54.428Z" fill="#991EEB"/>
</svg>
