<svg width="100" height="100" viewBox="0 0 100 100" fill="none" xmlns="http://www.w3.org/2000/svg">
    <rect width="100" height="100" fill="#000E1B"/>
    <path d="M24.6305 45.488H20.863C20.1847 45.456 19.5077 45.5749 18.8821 45.836V38H13V62H18.8699V52.316C18.8699 52.1117 18.9109 51.9094 18.9904 51.7208C19.07 51.5322 19.1865 51.361 19.3334 51.2171C19.4803 51.0732 19.6545 50.9595 19.8461 50.8824C20.0378 50.8053 20.2429 50.7664 20.4498 50.768H23.8648C24.0717 50.7664 24.2769 50.8053 24.4685 50.8824C24.6601 50.9595 24.8344 51.0732 24.9813 51.2171C25.1281 51.361 25.2447 51.5322 25.3242 51.7208C25.4038 51.9094 25.4447 52.1117 25.4447 52.316V62H31.3268V51.56C31.3268 47.168 28.3615 45.488 24.6426 45.488H24.6305ZM81.1179 45.488V55.172C81.1179 55.5826 80.9527 55.9763 80.6587 56.2666C80.3647 56.5569 79.966 56.72 79.5502 56.72H76.123C75.9161 56.7216 75.7109 56.6827 75.5193 56.6056C75.3277 56.5285 75.1535 56.4148 75.0066 56.2709C74.8597 56.127 74.7431 55.9558 74.6636 55.7672C74.5841 55.5786 74.5431 55.3763 74.5431 55.172V45.488H68.6732V55.652C68.6732 59.816 71.3347 62 75.3695 62H81.1179C84.7638 62 87 59.42 87 55.688V45.488H81.1179ZM47.9644 55.172C47.9644 55.3763 47.9234 55.5786 47.8439 55.7672C47.7643 55.9558 47.6478 56.127 47.5009 56.2709C47.354 56.4148 47.1798 56.5285 46.9881 56.6056C46.7965 56.6827 46.5914 56.7216 46.3845 56.72H42.9695C42.7626 56.7216 42.5574 56.6827 42.3658 56.6056C42.1742 56.5285 41.9999 56.4148 41.853 56.2709C41.7062 56.127 41.5896 55.9558 41.51 55.7672C41.4305 55.5786 41.3895 55.3763 41.3896 55.172V45.488H35.5196V55.652C35.5196 59.816 38.2176 62 42.1674 62H47.9157C51.5617 62 53.7978 59.42 53.7978 55.688V45.488H47.9644V55.172ZM58.3188 62H64.2009V38H58.3188V62Z" fill="#2DBD9D"/>
</svg>

