<svg width="100" height="100" viewBox="0 0 100 100" fill="none" xmlns="http://www.w3.org/2000/svg">
    <rect width="100" height="100" fill="#000E1B"/>
    <path d="M25.2139 60.5356C25.2139 61.3749 24.5758 62.0516 23.5768 62.0516C22.6186 62.0516 21.9805 61.3736 22.0005 60.5356C21.9805 59.6584 22.6188 59 23.5969 59C24.5751 59 25.1944 59.6584 25.2139 60.5356ZM22.0812 73.0084V63.2494H25.1147V73.0084H22.0812ZM30.2425 62.1123H26.6308V59.5582H36.9674V62.1123H33.2958V73.0084H30.2417L30.2425 62.1123ZM46.6053 69.8758C46.6053 71.1524 46.6456 72.19 46.6843 73.009H44.0503L43.9107 71.6322H43.85C43.4709 72.2304 42.5525 73.2292 40.7961 73.2292C38.8202 73.2292 37.3636 71.9908 37.3636 68.9778V63.2515H40.4171V68.4997C40.4171 69.9165 40.876 70.774 41.9336 70.774C42.7725 70.774 43.251 70.1957 43.4501 69.7168C43.5291 69.5372 43.5486 69.2978 43.5486 69.0584V63.2515H46.6029V69.8762H46.6053V69.8758ZM49.0389 66.3621C49.0389 65.1441 48.999 64.1066 48.9595 63.2498H51.5935L51.7331 64.5871H51.7938C52.1925 63.9689 53.1894 63.0306 54.8069 63.0306C56.8028 63.0306 58.2981 64.3476 58.2981 67.221V73.0084H55.2655V67.6001C55.2655 66.3439 54.8261 65.4851 53.7295 65.4851C52.8906 65.4851 52.392 66.0645 52.1933 66.6212C52.1139 66.8207 52.0741 67.1001 52.0741 67.3795V73.0068H49.0405V66.3626L49.0389 66.3621ZM63.0672 69.0971C63.167 70.3542 64.4046 70.9532 65.8213 70.9532C66.8589 70.9532 67.6974 70.8135 68.5147 70.5545L68.9142 72.6089C67.9169 73.0084 66.6993 73.2272 65.3815 73.2272C62.0682 73.2272 60.1735 71.2921 60.1735 68.2379C60.1735 65.7632 61.7099 63.0306 65.1021 63.0306C68.2558 63.0306 69.4525 65.4838 69.4525 67.8999C69.4525 68.4187 69.3923 68.8781 69.3537 69.0967L63.0672 69.0971ZM66.6394 67.0206C66.6394 66.2832 66.3193 65.0452 64.9229 65.0452C63.6458 65.0452 63.1272 66.2021 63.0465 67.0206H66.6394ZM71.2481 70.3542C71.8081 70.6922 72.9644 71.0916 73.8624 71.0916C74.7807 71.0916 75.1599 70.7716 75.1599 70.2732C75.1599 69.7748 74.8601 69.5353 73.7227 69.1558C71.7069 68.4778 70.9288 67.3802 70.9491 66.2424C70.9491 64.4066 72.5057 63.029 74.921 63.029C76.0579 63.029 77.0773 63.2889 77.6751 63.5886L77.1357 65.6842C76.6959 65.4447 75.8591 65.1246 75.0206 65.1246C74.2831 65.1246 73.8634 65.4243 73.8634 65.9227C73.8634 66.382 74.2425 66.6219 75.4398 67.0405C77.2959 67.6786 78.0741 68.6173 78.094 70.0536C78.094 71.8698 76.6574 73.2268 73.8634 73.2268C72.5872 73.2268 71.4475 72.9266 70.71 72.5271L71.2481 70.3542Z" fill="white"/>
    <path d="M63 45.9561C62.2079 47.7239 61.8278 48.5127 60.8076 50.0743C59.3843 52.2564 57.3774 54.9702 54.8906 54.9947C52.6801 55.0149 52.112 53.5487 49.113 53.564C46.1146 53.58 45.4887 55.02 43.2794 54.9998C40.7926 54.9771 38.8908 52.5251 37.4663 50.3449C33.4855 44.2467 33.069 37.0905 35.5234 33.2867C37.2681 30.5843 40.0214 29.0024 42.6106 29.0024C45.2468 29.0024 46.9035 30.4562 49.0817 30.4562C51.1959 30.4562 52.4833 29 55.5311 29C57.8337 29 60.2741 30.2634 62.0138 32.4417C56.3171 35.5829 57.2435 43.7667 63 45.9561Z" fill="white"/>
    <path d="M53.2913 26.3959C54.3999 24.9962 55.2422 23.0203 54.9368 21C53.1244 21.1232 51.0048 22.2569 49.7684 23.7342C48.6457 25.0751 47.719 27.064 48.0787 28.9978C50.0573 29.0573 52.1038 27.8954 53.2913 26.3959Z" fill="white"/>
</svg>
