<svg width="100" height="100" viewBox="0 0 100 100" fill="none" xmlns="http://www.w3.org/2000/svg">
    <rect width="100" height="100" fill="#000E1B"/>
    <path d="M23.9002 57.7753C22.8171 57.961 21.715 58.0167 20.5749 58.165L17.0973 48.2198V58.5918C16.0142 58.7031 15.0261 58.8516 14 59V40H16.8884L20.8408 50.7804V40H23.9002V57.7753ZM29.886 46.958C31.0642 46.958 32.8694 46.9023 33.9525 46.9023V49.871C32.6033 49.871 31.0262 49.871 29.886 49.9267V54.3428C31.6723 54.2315 33.4585 54.0829 35.2636 54.0272V56.8845L26.8455 57.5341V40H35.2636V42.9688H29.886V46.958ZM46.57 42.9688H43.4157V56.6251C42.3895 56.6251 41.3634 56.6251 40.3754 56.6621V42.9688H37.2211V40H46.5702L46.57 42.9688ZM51.5106 46.754H55.6722V49.7227H51.5106V56.4581H48.527V40H57.0213V42.9688H51.5106V46.754ZM61.9619 53.8603C63.6912 53.8973 65.4393 54.0275 67.1306 54.1201V57.0517C64.4133 56.8846 61.6959 56.7179 58.9216 56.6621V40H61.9619V53.8603ZM69.6959 57.2559C70.665 57.3116 71.6911 57.3673 72.6792 57.4784V40H69.6959V57.2559ZM86 40L82.1424 49.0362L86 59C84.8597 58.8516 83.7196 58.6475 82.5794 58.4619L80.3943 52.9698L78.1712 58.0167C77.0688 57.831 76.0047 57.7753 74.9028 57.6269L78.8172 48.9247L75.2827 40H78.5509L80.5462 44.9912L82.6746 40H86V40Z" fill="#D81F26"/>
</svg>
