<svg width="512" height="512" viewBox="0 0 512 512" fill="none" xmlns="http://www.w3.org/2000/svg">
    <path d="M512 0H0V512H512V0Z" fill="#F0F0F0"/>
    <path d="M512 64H0V128H512V64Z" fill="#D80027"/>
    <path d="M512 192H0V256H512V192Z" fill="#D80027"/>
    <path d="M512 320H0V384H512V320Z" fill="#D80027"/>
    <path d="M512 448H0V512H512V448Z" fill="#D80027"/>
    <path d="M256 0H0V275.69H256V0Z" fill="#2E52B2"/>
    <path d="M51.518 115.318L45.924 132.529H27.826L42.469 143.163L36.875 160.375L51.518 149.741L66.155 160.375L60.56 143.163L75.203 132.529H57.106L51.518 115.318Z" fill="#F0F0F0"/>
    <path d="M57.106 194.646L51.518 177.435L45.924 194.646H27.826L42.469 205.28L36.875 222.491L51.518 211.858L66.155 222.491L60.56 205.28L75.203 194.646H57.106Z" fill="#F0F0F0"/>
    <path d="M51.518 53.2021L45.924 70.4142H27.826L42.469 81.0471L36.875 98.2592L51.518 87.6251L66.155 98.2592L60.56 81.0471L75.203 70.4142H57.106L51.518 53.2021Z" fill="#F0F0F0"/>
    <path d="M128.003 115.318L122.409 132.529H104.311L118.954 143.163L113.36 160.375L128.003 149.741L142.64 160.375L137.045 143.163L151.689 132.529H133.591L128.003 115.318Z" fill="#F0F0F0"/>
    <path d="M133.591 194.646L128.003 177.435L122.409 194.646H104.311L118.954 205.28L113.36 222.491L128.003 211.858L142.64 222.491L137.045 205.28L151.689 194.646H133.591Z" fill="#F0F0F0"/>
    <path d="M210.076 194.646L204.489 177.435L198.894 194.646H180.797L195.44 205.28L189.845 222.491L204.489 211.858L219.125 222.491L213.531 205.28L228.174 194.646H210.076Z" fill="#F0F0F0"/>
    <path d="M204.489 115.318L198.894 132.529H180.797L195.44 143.163L189.845 160.375L204.489 149.741L219.125 160.375L213.531 143.163L228.174 132.529H210.076L204.489 115.318Z" fill="#F0F0F0"/>
    <path d="M128.003 53.2021L122.409 70.4142H104.311L118.954 81.0471L113.36 98.2592L128.003 87.6251L142.64 98.2592L137.045 81.0471L151.689 70.4142H133.591L128.003 53.2021Z" fill="#F0F0F0"/>
    <path d="M204.489 53.2021L198.894 70.4142H180.797L195.44 81.0471L189.845 98.2592L204.489 87.6251L219.125 98.2592L213.531 81.0471L228.174 70.4142H210.076L204.489 53.2021Z" fill="#F0F0F0"/>
</svg>
